<svg xmlns="http://www.w3.org/2000/svg" xmlns:xlink="http://www.w3.org/1999/xlink" viewBox="0,0,256,256" width="128px" height="128px" fill-rule="nonzero"><g fill="none" fill-rule="nonzero" stroke="none" stroke-width="1" stroke-linecap="butt" stroke-linejoin="miter" stroke-miterlimit="10" stroke-dasharray="" stroke-dashoffset="0" font-family="none" font-weight="none" font-size="none" text-anchor="none" style="mix-blend-mode: normal"><g transform="scale(0.5,0.5)"><path d="M7.9,256c0,-137 111.1,-248.1 248.1,-248.1c137,0 248.1,111.1 248.1,248.1c0,137 -111.1,248.1 -248.1,248.1c-137,0 -248.1,-111.1 -248.1,-248.1z" fill="#be3232"></path><path d="M436.2,180.1c-10.3,0 -20.7,0.1 -31,0.1c-23.3,-52.2 -69,-89.9 -126.6,-98.9c-64.4,-10.1 -125.9,19.7 -162.6,72.3c-16.3,23.3 22,45.2 38.2,22c50.3,-72 157.8,-65.5 201.9,4.7c-9.6,0 -19.1,0 -28.7,0.1c-2.7,0 -4.6,1.2 -5.7,2.9c-1.9,2.1 -2.7,5.1 -0.6,8.2c18.2,28.2 36.4,56.5 54.6,84.7c3.1,4.7 9.7,4.7 12.7,0c18.1,-28.3 36.1,-56.7 54.2,-85c2.9,-4.8 -1.1,-11.1 -6.4,-11.1zM358.3,335.1c-49.9,71.5 -156.1,65.6 -200.9,-3c9.2,0 18.3,0 27.5,-0.1c2.7,0 4.6,-1.2 5.7,-2.9c1.9,-2.1 2.7,-5.1 0.6,-8.2c-18.2,-28.2 -36.4,-56.5 -54.6,-84.7c-3.1,-4.8 -9.7,-4.7 -12.7,0c-18.1,28.3 -36.1,56.7 -54.2,85c-3,4.7 0.9,11 6.3,11c10.7,0 21.3,-0.1 32,-0.1c23.5,51.3 68.8,88.3 125.9,97.3c64.3,10.1 125.8,-19.8 162.5,-72.3c16.3,-23.3 -22,-45.1 -38.1,-22z" fill="#ffffff"></path></g></g></svg>